<?xml version="1.0" standalone="no"?>
<!DOCTYPE svg PUBLIC "-//W3C//DTD SVG 1.1//EN" "http://www.w3.org/Graphics/SVG/1.1/DTD/svg11.dtd" >
<svg xmlns="http://www.w3.org/2000/svg">
<metadata>Generated by IcoMoon</metadata>
<defs>
<font id="themify" horiz-adv-x="512">
<font-face units-per-em="512" ascent="480" descent="-32" />
<missing-glyph horiz-adv-x="512" />
<glyph unicode="&#x20;" d="" horiz-adv-x="256" />
<glyph unicode="&#xe600;" d="M512 329.412h-99.178l70.114-70.114-21.293-21.293-70.114 70.114v-99.178h-30.118v98.966l-320.632-321.20B375EFA3C" />
<glyph unicode="&#xe601;" d="M108.032 301.312c-28.793 0-46.682-15.059-46.682-39.334v-65.084c0-12.499 4.849-24.214 13.643-33.069 80D78A9BAEF" />
<glyph unicode="&#xe602;" d="M512-16.58c-1.897 80.926-83.667 150.558-196.397 168.93v41.382c14.818 14.245 25.359 36.352 32.256 55.0E1B90FA51" />
<glyph unicode="&#xe603;" d="M286.118 149.549c0-11.023-6.235-20.239-15.059-25.48v-64.874h-30.118v64.844c-8.855 5.24-15.059 14.457094A3EBAD4" />
<glyph unicode="&#xe604;" d="M64.271 325.226l42.225 77.914c32.708 49.634 98.244 63.097 146.703 30.991l-16.595-25.088c-34.605 22.804B6D52A06" />
<glyph unicode="&#xe605;" d="M329.337 419.283c-6.565 26.172-30.087 45.659-58.278 45.659-28.070 0-51.501-19.365-58.157-45.659h-107068CB66A88" />
<glyph unicode="&#xe606;" d="M346.353 175.33c91.347 0 165.647 68.337 165.647 152.335s-74.3 152.335-165.647 152.335c-57.585 0-111.225-28.25-141.071-73.216-21.233 12.017-45.056 18.312-69.752 18.312-74.722 0-135.53-56.019-135.53-124.898 0-68.849 60.807-124.868 135.53-124.868 5.602 0 11.294 0.392 17.257 1.115 19.637-17.709 45.839-27.738 73.095-27.738 30.178 0 58.097 11.656 78.065 32.226 14.697-3.764 28.642-5.602 42.406-5.602zM293.497 215.416l-6.385-8.072c-14.185-17.86-37.075-28.522-61.229-28.522-21.805 0-42.587 8.734-57.073 24.004l-5.542 5.813-7.951-1.385c-6.445-1.115-12.981-1.807-19.787-1.807-58.127 0-105.412 42.496-105.412 94.72 0 52.254 47.285 94.78 105.412 94.78 23.853 0 46.652-7.409 65.928-21.474l14.215-10.331 8.042 15.661c22.227 43.159 70.355 71.077 122.639 71.077 74.722 0 135.529-54.814 135.529-122.247 0-67.373-60.808-122.218-135.529-122.218-13.644 0-27.738 2.259-43.038 6.957l-9.818 3.042zM346.353 163.764c-33.22 0-60.236-27.015-60.236-60.236s27.015-60.236 60.236-60.236 60.236 27.015 60.236 60.236-27.015 60.236-60.236 60.236zM346.353 73.412c-16.595 0-30.118 13.493-30.118 30.118s13.523 30.118 30.118 30.118 30.118-13.493 30.118-30.118-13.523-30.118-30.118-30.118zM459.294 58.353c-20.751 0-37.647-16.896-37.647-37.647s16.896-37.647 37.647-37.647 37.647 16.896 37.647 37.647-16.896 37.647-37.647 37.647zM451.764 20.706c0 4.156 3.373 7.529 7.529 7.529s7.529-3.373 7.529-7.529c0-8.283-15.059-8.283-15.059 0z" />
<glyph unicode="&#xe607;" d="M512.602 239.059h-61.591c-7.379 96.196-84.51 173.026-180.827 180.013v62.103h-30.118v-62.193c-95.533-0FDB1FAA32" />
<glyph unicode="&#xe608;" d="M269.644 449.642l-119.476-86.799v-365.628l120.049 84.149 121.706-83.877v365.478l-122.278 86.678zM3610E94F1BACF" />
<glyph unicode="&#xe609;" d="M278.588 43.294c0-12.499-10.089-22.588-22.588-22.588s-22.588 10.089-22.588 22.588 10.089 22.588 22.50F46F7CA8C" />
<glyph unicode="&#xe60a;" d="M501.368 268.664h-187.483l-57.886 178.297-57.916-178.297h-187.452l151.643-110.17-57.886-178.297 151.0F5E906A5D" />
<glyph unicode="&#xe60b;" d="M195.764 389.647c-42.948 0-82.582-23.431-103.996-60.236h-31.533v-316.236c0-24.907 20.269-45.176 45.10C1BE9BA96" />
<glyph unicode="&#xe60c;" d="M346.353 359.529c0 49.815-40.538 90.353-90.353 90.353s-90.353-40.538-90.353-90.353c0-44.664 32.648-807B76BFA4B" />
<glyph unicode="&#xe60d;" d="M82.823 103.529c-29.064 0-52.706-23.642-52.706-52.706s23.642-52.706 52.706-52.706 52.706 23.642 52.709F0086AC7" />
<glyph unicode="&#xe60e;" d="M82.823 103.529c-29.064 0-52.706-23.642-52.706-52.706s23.642-52.706 52.706-52.706 52.706 23.642 52.70A440F3AFA" />
<glyph unicode="&#xe60f;" d="M256 300.137c-41.502 0-75.294-33.792-75.294-75.294s33.792-75.294 75.294-75.294 75.294 33.792 75.294 0A216CDA8B" />
<glyph unicode="&#xe610;" d="M500.074 2.093l-155.798 155.798c29.365 34.244 47.255 78.637 47.255 127.187 0 107.942-87.823 195.764-0262AC6A22" />
<glyph unicode="&#xe611;" d="M500.074 1.25l-155.798 155.798c29.365 34.244 47.255 78.607 47.255 127.187 0 107.942-87.823 195.764-10A6916EA3A" />
<glyph unicode="&#xe612;" d="M500.074 2.093l-155.798 155.798c29.365 34.244 47.255 78.637 47.255 127.187 0 107.942-87.823 195.764-0FA10B6A20" />
<glyph unicode="&#xe613;" d="M391.529 148.706c-16.414 0-31.594-4.728-44.875-12.409l-69.933 73.909 188.536 199.198-21.896 20.721-1083E4F7A0B" />
<glyph unicode="&#xe614;" d="M150.588 480v-512h210.823v512h-210.823zM331.294-1.882h-150.588v29.636h60.236v30.118h-60.236v30.599h30C11697A6B" />
<glyph unicode="&#xe615;" d="M135.288 480h-59.754c-24.907 0-45.176-20.269-45.176-45.176v-320.964l75.927-149.263 74.21 149.353v3200C5F3F1A8A" />
<glyph unicode="&#xe616;" d="M362.496 479.548l-362.044-362.044 149.083-149.052 362.014 362.014-149.052 149.082zM43.038 117.504l200B89936A73" />
<glyph unicode="&#xe617;" d="M107.279 449.882v-465.589l141.131 98.485 143.119-98.183v465.288h-284.25zM361.412 41.758l-113.122 77.644-110.863-77.342v377.705h223.985v-378.007z" />
<glyph unicode="&#xe618;" d="M301.99 176.595v303.405h-182.332v-303.495l90.986 61.832 91.347-61.741zM149.775 233.397v216.486h122.103CDC75AA5" />
<glyph unicode="&#xe619;" d="M180.706 239.059h-180.706v180.706h30.117v-123.754c30.509 96.166 121.555 165.165 225.882 165.165 105.06DD298A8A" />
<glyph unicode="&#xe61a;" d="M481.882 208.941h-210.824v-210.824h-30.118v210.823h-210.823v30.118h210.823v210.824h30.118v-210.824h210.823v-30.118z" />
<glyph unicode="&#xe61b;" d="M361.412 344.471c0 58.127-47.284 105.412-105.412 105.412s-105.412-47.285-105.412-105.412c0-52.556 380CD114AA17" />
<glyph unicode="&#xe61c;" d="M467.697 393.954l-42.255 42.285c-17.017 17.047-46.833 17.047-63.909 0l-272.776-272.805-51.862-159.260E93A7FA12" />
<glyph unicode="&#xe61d;" d="M496.911 424.493l-42.255 42.255c-17.046 17.047-46.833 17.047-63.909 0l-226.966-226.966-51.862-159.232 158.088 53.158 226.906 226.906c8.524 8.524 13.221 19.877 13.221 31.955s-4.699 23.401-13.221 31.925zM168.177 155.995l19.215 58.94 57.826-57.796-58.489-19.667-18.553 18.522zM205.764 239.179l120.049 120.049 63.548-63.548-120.049-120.049-63.548 63.548zM347.106 380.522l21.956 21.956 63.548-63.548-21.956-21.956-63.548 63.548zM475.618 381.907l-21.685-21.715-63.548 63.548 21.685 21.715c5.723 5.692 15.631 5.692 21.293 0l42.255-42.255c2.831-2.861 4.397-6.626 4.397-10.661s-1.566-7.771-4.397-10.632zM451.764 254.118h30.118v-286.118h-481.882v451.764h225.882v-30.118h-195.764v-391.529h421.647v256z" />
<glyph unicode="&#xe61e;" d="M451.764 419.764v60.236h-391.529v-60.236h-15.541c-24.636 0-44.694-20.329-44.694-45.327v-90.052c0-24.02706AFA07" />
<glyph unicode="&#xe61f;" d="M502.995 184.305l-267.084 268.77-4.036-4.005c-20.119 19.908-46.743 30.9-75.084 30.931 0 0 0 0-0.030 08FB236AC7" />
<glyph unicode="&#xe620;" d="M256 464.941c-132.849 0-240.941-108.092-240.941-240.941s108.092-240.941 240.941-240.941 240.941 108.07876E7A67" />
<glyph unicode="&#xe621;" d="M376.471 480h-240.941c-24.907 0-45.177-20.269-45.177-45.176v-421.647c0-24.908 20.269-45.176 45.177-40234B0FA69" />
<glyph unicode="&#xe622;" d="M451.764 239.059v-30.117h-391.529v30.118h391.529z" />
<glyph unicode="&#xe623;" d="M256 480c-83.034 0-150.588-67.554-150.588-150.588 0-41.412 16.715-80.083 47.044-108.906 2.56-2.469 50EC6A61A43" />
<glyph unicode="&#xe624;" d="M256 480c-83.034 0-150.588-67.554-150.588-150.588 0-41.412 16.715-80.083 47.044-108.906 2.56-2.469 50D01626A07" />
<glyph unicode="&#xe625;" d="M320.632 449.882h-23.13c-6.988 17.709-23.161 30.118-41.954 30.118h-74.3c-8.794 0-15.963-2.711-21.26307948D7A11" />
<glyph unicode="&#xe626;" d="M471.763 308.812l-16.384 16.384c2.349 5.391 3.825 11.084 4.187 16.926 0.783 13.101-3.644 25.148-12.50C84812A03" />
<glyph unicode="&#xe627;" d="M456.162 213.339l-185.103 185.133v-400.354h-30.118v400.354l-185.103-185.133-21.323 21.323 221.485 221.455 221.485-221.485-21.324-21.293z" />
<glyph unicode="&#xe628;" d="M473.058 224.844l-221.485-221.485-21.293 21.293 185.103 185.103h-385.265v30.118h385.295l-185.133 185.163 21.293 21.293 221.485-221.485z" />
<glyph unicode="&#xe629;" d="M481.882 209.784h-385.295l185.103-185.103-21.293-21.293-221.455 221.455 221.485 221.485 21.293-21.293-185.133-185.133h385.295v-30.118z" />
<glyph unicode="&#xe62a;" d="M477.485 213.339l-221.485-221.455-221.485 221.455 21.293 21.293 185.133-185.103v400.354h30.117v-400.354l185.103 185.103 21.324-21.293z" />
<glyph unicode="&#xe62b;" d="M286.118 149.549c0-11.023-6.235-20.239-15.059-25.48v-64.874h-30.118v64.844c-8.855 5.24-15.059 14.45703F6F92AFE" />
<glyph unicode="&#xe62c;" d="M59.362 420.788l159.262-424.689 36.502 228.924 228.924 36.502-424.689 159.262zM228.834 251.347l-22.016-137.999-95.985 255.97 255.97-95.985-137.969-21.986z" />
<glyph unicode="&#xe62d;" d="M391.017 270.983l-28.25-28.25-21.293 21.293 28.25 28.25c29.365 29.364 29.365 77.132 0 106.466s-77.1302D7D92AC5" />
<glyph unicode="&#xe62e;" d="M0 480v-512h512v512h-512zM30.117 299.294h271.059v-301.176h-271.059v301.176zM481.882-1.882h-150.588v30FE5CADA4F" />
<glyph unicode="&#xe62f;" d="M391.529 449.882h-391.529v-331.294h391.529v331.294zM361.412 148.706h-331.294v271.059h331.294v-271.05044855FA85" />
<glyph unicode="&#xe630;" d="M331.294 449.882h-331.294v-271.059h331.294v271.059zM301.176 208.941h-271.059v210.824h271.059v-210.820E24C7BAF6" />
<glyph unicode="&#xe631;" d="M446.072 290.289l21.293 21.293-52.194 52.194 22.799 22.678-21.233 21.353-245.339-244.164c-14.577 10.08EDCBDA04" />
<glyph unicode="&#xe632;" d="M256 68.081l-146.161 145.468 21.233 21.353 109.869-109.357v325.18h30.117v-325.18l109.839 109.327 21.03811D2A28" />
<glyph unicode="&#xe633;" d="M30.117 449.882v-451.764h451.764v451.764h-451.764zM451.764 28.236h-391.529v60.236h391.529v-60.236zM60D0F43FAA5" />
<glyph unicode="&#xe634;" d="M376.471 460.183c-52.375 0-97.913-29.877-120.471-73.457-22.558 43.58-68.096 73.457-120.471 73.457-740E8AD95ADD" />
<glyph unicode="&#xe635;" d="M4.608 290.981c-3.163 12.62-4.608 23.341-4.608 33.672 0 74.722 60.807 135.529 135.53 135.529 52.374 0CB1FFAA3A" />
<glyph unicode="&#xe636;" d="M421.647 347.392v-218.594c0-25.781-10.149-56.23-19.125-83.065-5.391-16.204-10.993-32.918-10.993-40.00CD62F6A8B" />
<glyph unicode="&#xe637;" d="M459.053 316.762l-35.78-242.868c-3.554-18.432-11.716-26.503-17.649-32.406-5.752-5.723-9.577-9.517-9.022EC20A59" />
<glyph unicode="&#xe638;" d="M420.533 311.341v-176.007c0-23.401-11.535-37.376-19.968-47.556-7.048-8.553-10.722-13.342-10.722-20.9090B8F4A97" />
<glyph unicode="&#xe639;" d="M240.941 359.529l-58.97 60.236h-181.971v-451.764h512v391.529h-271.059zM169.321 389.647l58.97-60.236h0B9D38FA52" />
<glyph unicode="&#xe63a;" d="M391.529 178.582v278.227l-357.767-139.113 357.767-139.113zM361.412 222.584l-244.585 95.112 244.585 95.141v-190.253zM451.764 480v-512h-30.118v512h30.118z" />
<glyph unicode="&#xe63b;" d="M451.764 480v-512h-30.118v512h30.118zM45.989 450.605h345.54v-240.941h-346.052l87.673 119.025-87.16 10A3A7F8AEF" />
<glyph unicode="&#xe63c;" d="M451.764 480v-512h-30.118v512h30.118zM150.107 449.882h240.941v-240.941h-150.107v-60.236h-210.823v240000C1BFA1E" />
<glyph unicode="&#xe63d;" d="M510.946 214.452c-38.671 98.394-141.161 164.533-254.946 164.533s-216.275-66.139-254.946-164.533c-1.30D79908A3B" />
<glyph unicode="&#xe63e;" d="M131.283 300.62l-21.624 20.992 146.341 150.739 146.341-150.739-21.625-20.962-109.659 112.941v-324.27076EA2BA80" />
<glyph unicode="&#xe63f;" d="M180.706 26.94v212.119h-30.118v-212.119l-109.809 109.809-21.293-21.293 146.161-146.161 146.191 146.10D178F6AA3" />
<glyph unicode="&#xe640;" d="M60.236 148.706h391.529v240.941h-391.529v-240.941zM90.353 359.529h331.294v-180.706h-331.294v180.706z04866DAAF5" />
<glyph unicode="&#xe641;" d="M511.97 449.882h-67.976c0.030 5.060 0.241 9.879 0.241 15.059v15.059h-376.471v-15.059c0-4.819 0.121-109A0298A40" />
<glyph unicode="&#xe642;" d="M380.265 276.917l-122.971 200.975-126.826-201.036-135.5 115.441 52.374-394.18h417.28l52.345 393.788-05180C0AB3" />
<glyph unicode="&#xe643;" d="M512 434.824v-240.007c0-24.908-20.269-45.176-45.176-45.176h-15.3v30.118h15.3c8.313 0 15.059 6.776 150A44CE4A24" />
<glyph unicode="&#xe644;" d="M466.824 480h-421.647c-24.907 0-45.176-20.269-45.176-45.176v-301.176c0-24.908 20.269-45.176 45.176-40D5C3EAAAF" />
<glyph unicode="&#xe645;" d="M466.824 480h-421.647c-24.907 0-45.176-20.269-45.176-45.176v-301.176c0-24.908 20.269-45.176 45.176-4085CBC2A3A" />
<glyph unicode="&#xe646;" d="M277.293 224l200.162-200.162-21.293-21.293-200.162 200.162-200.162-200.162-21.293 21.293 200.162 20007B09F4A8C" />
<glyph unicode="&#xe647;" d="M362.044 352.482v-255.94h-30.118v255.94c0 32.858-24.064 68.247-76.921 68.247-58.459 0-74.060-42.888-05F1A4EA65" />
<glyph unicode="&#xe648;" d="M492.544 121.721l-21.293-21.293-215.251 215.221-215.22-215.221-21.293 21.293 236.514 236.514 236.544-236.514z" />
<glyph unicode="&#xe649;" d="M397.764 224.844l-236.544-236.544-21.293 21.293 215.22 215.22-215.22 215.281 21.293 21.293 236.544-236.544z" />
<glyph unicode="&#xe64a;" d="M156.822 224.874l215.221-215.251-21.293-21.293-236.514 236.544 236.544 236.514 21.293-21.293-215.251-215.221z" />
<glyph unicode="&#xe64b;" d="M492.544 327.153l-236.574-236.544-236.514 236.544 21.293 21.293 215.19-215.221 215.281 215.251 21.324-21.323z" />
<glyph unicode="&#xe64c;" d="M464.354 426.572l-266.029-406.137-148.119 132.096 20.058 22.468 122.007-108.845 246.905 376.923 25.178-16.505z" />
<glyph unicode="&#xe64d;" d="M421.647 306.492h30.118v-308.375h-421.647v421.647h252.777v-30.118h-222.66v-361.412h361.412v278.257zM0F10452A1D" />
<glyph unicode="&#xe64e;" d="M179.441 389.647v30.118h-87.823v-30.118h-91.618v-361.412h512v361.412h-332.559zM481.882 58.353h-451.70D5FB43A64" />
<glyph unicode="&#xe64f;" d="M496.007 413.079h-58.036c-8.794 0-15.993-7.048-15.993-15.692v-20.089l-331.144-121.374v8.132c0 12.9510C87750A6E" />
<glyph unicode="&#xe650;" d="M479.262 426.331l-195.764-286.118-24.847 16.986 195.764 286.118 24.847-16.986zM271.059 58.594c0-33.20691A7DADB" />
<glyph unicode="&#xe651;" d="M210.823 88.471v45.176h30.118v-15.059h30.117v15.059h30.118v-45.176h-90.353zM512 148.706h-30.118v-18008C0527AC1" />
<glyph unicode="&#xe652;" d="M431.074 419.404h-215.401l-70.204-211.245h50.176l-60.536-182.272 285.606 242.477h-87.462l97.822 151.051966AA8C" />
<glyph unicode="&#xe653;" d="M356.292 239.059l-115.23-217.841-26.624 14.065 91.859 173.659h-153.871l147.576 219.226 24.967-16.836-115.983-172.273h147.305z" />
<glyph unicode="&#xe654;" d="M271.059 419.764v60.236h-30.118v-60.236h-210.823v-301.176h451.764v301.176h-210.823zM451.764 148.706h0AAA940AD8" />
<glyph unicode="&#xe655;" d="M391.529 359.529v72.101c0 26.654-22.197 48.369-49.483 48.369h-171.641c-27.256 0-49.453-21.715-49.453066E713A9A" />
<glyph unicode="&#xe656;" d="M409.69 138.195l-21.263 21.324 49.514 49.423h-166.882v-166.882l49.423 49.514 21.324-21.263-85.805-8503D4124A85" />
<glyph unicode="&#xe657;" d="M350.63 116.691l21.564-21.022-116.194-119.115-116.194 119.085 21.564 21.022 79.571-81.529v377.736l-70A47BBCA30" />
<glyph unicode="&#xe658;" d="M503.447 224l-119.085-116.194-21.022 21.564 81.529 79.571h-377.736l81.558-79.571-21.022-21.564-119.106FF542A8D" />
<glyph unicode="&#xe659;" d="M481.762 138.104l0.12-139.987-140.017 0.12 0.030 30.118 88.546-0.091-174.441 174.411-174.441-174.442043DDAAA0D" />
<glyph unicode="&#xe65a;" d="M481.882 449.973v-271.149h-30.118v219.768l-310.724-310.121-21.293 21.324 310.663 310.061h-220.34v30.118h271.812z" />
<glyph unicode="&#xe65b;" d="M370.206 88.471l-310.724 310.122v-219.768h-30.117v271.149h271.812v-30.118h-220.34l310.663-310.061-21.293-21.324z" />
<glyph unicode="&#xe65c;" d="M256 305.529l131.132-131.132-21.293-21.293-109.839 109.839-109.809-109.809-21.293 21.293 131.102 1310FD41ECAB9" />
<glyph unicode="&#xe65d;" d="M206.427 355.132l131.102-131.132-131.132-131.132-21.293 21.293 109.839 109.839-109.839 109.809 21.3205CB739A75" />
<glyph unicode="&#xe65e;" d="M326.897 333.809l-109.839-109.809 109.809-109.809-21.293-21.293-131.102 131.102 131.132 131.132 21.201546BEABB" />
<glyph unicode="&#xe65f;" d="M365.809 294.897l21.293-21.293-131.102-131.132-131.132 131.102 21.293 21.293 109.839-109.809 109.809074A53DA84" />
<glyph unicode="&#xe660;" d="M256 297.096l206.427-206.427-21.293-21.293-185.133 185.133-185.103-185.103-21.293 21.293 206.396 20604550CBA26" />
<glyph unicode="&#xe661;" d="M290.454 224l-206.427-206.427-21.293 21.293 185.103 185.133-185.103 185.103 21.293 21.324 206.427-200CCB196A68" />
<glyph unicode="&#xe662;" d="M240.549 224l185.103-185.103-21.293-21.293-206.396 206.396 206.427 206.427 21.293-21.293-185.133-1850AA43A1A15" />
<glyph unicode="&#xe663;" d="M256 159.428l-206.427 206.427 21.293 21.293 185.133-185.103 185.103 185.103 21.293-21.293-206.396-20026A60FA60" />
<glyph unicode="&#xe664;" d="M291.147 480h-230.912v-512h391.529v352.135l-160.618 159.865zM301.176 427.535l98.575-98.123h-98.575v90C331E4A6A" />
<glyph unicode="&#xe665;" d="M256.482 480c-141.161 0-256-114.839-256-256s114.838-256 256-256 256 114.839 256 256-114.868 256-256 0F500F1A3F" />
<glyph unicode="&#xe666;" d="M328.313 92.988l29.425-6.415c-15.209-69.813-75.625-118.573-146.914-118.573-83.034 0-150.588 67.554-104E5E5FAF4" />
<glyph unicode="&#xe667;" d="M0 480v-120.471h512v120.471h-512zM481.882 389.647h-451.764v60.236h451.764v-60.236zM0 178.824h512v1200306553A4C" />
<glyph unicode="&#xe668;" d="M150.588 480v-120.471h361.412v120.471h-361.412zM481.882 389.647h-301.176v60.236h301.176v-60.236zM150017D404AA7" />
<glyph unicode="&#xe669;" d="M0 269.177h210.823v210.823h-210.823v-210.823zM30.117 449.882h150.588v-150.588h-150.588v150.588zM301.00562BCA81" />
<glyph unicode="&#xe66a;" d="M210.823 359.529h30.118v-60.236h-30.118v30.118h-60.236v-240.941h30.118v-30.118h-90.353v30.118h30.1170B23987A4C" />
<glyph unicode="&#xe66b;" d="M512-1.882v-30.118h-512v30.118h512zM240.911 428.559v-340.088h30.118v340.149l109.839-109.839 21.293 20E3C671A68" />
<glyph unicode="&#xe66c;" d="M451.764 449.882v-30.118h-30.118v-194.53c0-91.317-74.3-165.647-165.647-165.647s-165.647 74.33-165.640965D13A6B" />
<glyph unicode="&#xe66d;" d="M512 389.647h-331.294v-90.353h-86.528l-35.84-120.47h-58.338v-149.896h60.295c0-0.241-0.060-0.452-0.0609FE60BA09" />
<glyph unicode="&#xe66e;" d="M271.059 419.012v30.87h45.176v30.118h-120.471v-30.118h45.177v-30.87c-117.519-7.83-210.823-105.652-210E97E10A87" />
<glyph unicode="&#xe66f;" d="M286.118 449.882v-15.059c0-16.625-13.523-30.118-30.118-30.118s-30.118 13.493-30.118 30.118v15.059h-10A20281A1E" />
<glyph unicode="&#xe670;" d="M462.848 187.106c2.5-6.114 3.976-14.035 3.976-24.305 0-15.842-7.228-29.244-18.703-37.135 4.156-7.04801C2192A3D" />
<glyph unicode="&#xe671;" d="M438.754 193.852c0-8.313-6.747-15.059-15.059-15.059h-69l-93.003-150.287c-14.366-24.094-32.979-27.7380B4A636ACC" />
<glyph unicode="&#xe672;" d="M421.647 419.764v-90.353h-30.118v60.236h-120.471v-361.412h49.483v-30.118h-129.084v30.118h49.483v361.412h-120.471v-60.236h-30.117v90.353h331.294z" />
<glyph unicode="&#xe673;" d="M512-1.882v-30.118h-512v30.118h512zM156.702 239.781l126.615-91.136 168.448 188.265v-68.788h30.118v120DC5DE9AEE" />
<glyph unicode="&#xe674;" d="M155.588 214.875l-131.644 119.145 20.179 22.317 113.634-102.791 126.615 91.136 168.448-188.236v68.819h30.118v-121.555h-121.555v30.118h71.259l-152.667 170.617-124.386-89.57zM0-1.882v-30.118h512v30.118h-512z" />
<glyph unicode="&#xe675;" d="M320.632 84.074l21.293-21.293-85.925-85.956-85.956 85.956 21.293 21.293 49.604-49.604v113.604h30.118v-113.604l49.574 49.604zM240.941 413.531v-113.604h30.117v113.604l49.574-49.574 21.293 21.293-85.925 85.925-85.956-85.925 21.293-21.293 49.604 49.573zM0 239.059v-30.117h512v30.118h-512z" />
<glyph unicode="&#xe676;" d="M66.469 239.059h113.604v-30.117h-113.604l49.574-49.574-21.293-21.293-85.925 85.925 85.956 85.956 21.293-21.293-49.604-49.604zM417.25 309.956l-21.293-21.293 49.574-49.604h-113.604v-30.118h113.604l-49.574-49.574 21.293-21.293 85.925 85.925-85.925 85.956zM240.941-32h30.117v512h-30.118v-512z" />
<glyph unicode="&#xe677;" d="M180.706 301.553h30.118v-60.236h-30.118v30.118h-60.236v-240.941h30.118v-30.118h-90.353v30.118h30.11702C78C7ACC" />
<glyph unicode="&#xe678;" d="M256 329.412c-58.127 0-105.412-47.285-105.412-105.412s47.285-105.412 105.412-105.412 105.412 47.284 08E5E07AEA" />
<glyph unicode="&#xe679;" d="M251.603 370.191l146.161-146.191-146.191-146.191-21.293 21.293 109.839 109.839h-340.118v30.118h340.00773480AB5" />
<glyph unicode="&#xe67a;" d="M512 208.911h-340.089l109.809-109.809-21.293-21.293-146.191 146.191 146.191 146.191 21.293-21.293-109.869-109.869h340.149v-30.118zM0-32h30.117v512h-30.117v-512z" />
<glyph unicode="&#xe67b;" d="M451.764 449.401c0-49.815-40.538-90.353-90.353-90.353s-90.353 40.538-90.353 90.353h-30.118c0-49.815-042F05CAA2" />
<glyph unicode="&#xe67c;" d="M30.117 480v-512h451.764v512h-451.764zM451.764-1.882h-391.529v451.764h60.236v-32.889c-17.499-6.234-30E4D952A6E" />
<glyph unicode="&#xe67d;" d="M512 374.588c0 68.458-131.916 105.412-256 105.412s-256-36.954-256-105.412c0-4.487 0.723-9.577 2.409-0691E96A59" />
<glyph unicode="&#xe67e;" d="M220.070 273.332c0 58.609-47.676 106.285-106.285 106.285-58.579 0-106.255-47.676-106.255-106.285 0-506D5B15A44" />
<glyph unicode="&#xe67f;" d="M396.62 250.684c-22.106 0-42.676-6.837-59.693-18.432 37.044 104.569 120.2 116.856 124.507 117.399l-30BE4D33A74" />
<glyph unicode="&#xe680;" d="M431.586 239.059l-56.5 131.825-103.544-294.641-120.923 394.842-71.379-232.026h-79.24v-30.118h101.46607BE9FDAF1" />
<glyph unicode="&#xe681;" d="M512 299.294h-90.594v54.754l-135.62 125.952h-195.674v-180.706h-90.112v-240.941h90.353v-93.364h331.2907AE45AA06" />
<glyph unicode="&#xe682;" d="M481.882 193.882c0-124.567-101.316-225.882-225.882-225.882s-225.882 101.316-225.882 225.882c0 105.35076C54BAEE" />
<glyph unicode="&#xe683;" d="M90.353 359.529v-151.010c0-82.793 74.33-150.167 165.647-150.167s165.647 67.373 165.647 150.167v151.005C3FE6A0B" />
<glyph unicode="&#xe684;" d="M451.313 210.658l30.058-2.018c-7.921-118.061-106.918-210.522-225.37-210.522-124.567 0-225.882 101.3102486F8A54" />
<glyph unicode="&#xe685;" d="M481.882 449.099h-331.535c-65.686 0-119.115-53.428-119.115-119.115s53.428-119.085 119.115-119.085h9002A8BDFA89" />
<glyph unicode="&#xe686;" d="M0 480v-512h512v512h-512zM481.882-1.882h-451.764v451.764h451.764v-451.764zM120.471 171.836v-83.365h30C670B9AC0" />
<glyph unicode="&#xe687;" d="M256.512 481.054l-256.512-97.009v-322.048l256-96.015 256 96.015v322.018l-255.488 97.039zM454.295 373006C4FEA10" />
<glyph unicode="&#xe688;" d="M444.687 345.706l12.68 27.286-216.425 100.472v-297.502c-15.39 13.372-35.238 21.745-57.163 21.745-48.03F578FA31" />
<glyph unicode="&#xe689;" d="M180.706 472.019v-277.745c-15.42 13.433-35.328 21.865-57.344 21.865-48.399 0-87.763-39.394-87.763-8701D9A04A29" />
<glyph unicode="&#xe68a;" d="M256 480c-91.347 0-165.647-74.3-165.647-165.647v-180.706c0-91.347 74.3-165.647 165.647-165.647s165.60FF2A2FACD" />
<glyph unicode="&#xe68b;" d="M256 480c-91.347 0-165.647-74.3-165.647-165.647v-180.706c0-91.347 74.3-165.647 165.647-165.647s165.60A7138AA7B" />
<glyph unicode="&#xe68c;" d="M322.831 191.563v0l-0.301 0.301c-0.392 0.332-0.663 0.723-1.084 1.024l-0.091-0.12-50.296 38.611v171.8029EBBBAD5" />
<glyph unicode="&#xe68d;" d="M256 118.588c74.722 0 135.529 60.808 135.529 135.53v90.353c0 69.602-52.887 126.404-120.471 133.994v1051A3E6AC6" />
<glyph unicode="&#xe68e;" d="M481.882 389.647v-60.236h-451.764v60.236h451.764zM30.117 178.824h451.764v60.236h-451.764v-60.236zM30.117 28.236h451.764v60.236h-451.764v-60.236z" />
<glyph unicode="&#xe68f;" d="M481.882 419.764v-60.236h-331.294v60.236h331.294zM150.588 208.941h331.294v60.236h-331.294v-60.236zM10E6F7ABAD1" />
<glyph unicode="&#xe690;" d="M316.205 346.338l-147.637 42.707-168.569 0.603v-331.294h161.069l156.491-44.544 164.322 48.339v332.52062A57EA4B" />
<glyph unicode="&#xe691;" d="M451.764 359.529v-2.078l-0.392 1.747-30.57-6.656c-4.187 54.302-49.212 97.34-104.568 97.34-55.447 0-10CDBDBBA33" />
<glyph unicode="&#xe692;" d="M30.117 208.941c0-66.44 51.532-120.471 114.838-120.471v-30.118c-79.932 0-144.956 67.554-144.956 150.04E7326AD0" />
<glyph unicode="&#xe693;" d="M256 464.941c-91.317 0-165.647-74.3-165.647-165.647 0-131.704 147.968-303.766 154.262-311.055l11.3850D47D8AA22" />
<glyph unicode="&#xe694;" d="M512 359.529v-30.117h-361.412v30.117h361.412zM90.353 344.471c0-24.908-20.269-45.177-45.176-45.177s-40FCA590AAA" />
<glyph unicode="&#xe695;" d="M256 480c-91.317 0-165.647-78.818-165.647-175.676 0-70.897 29.034-110.532 54.633-145.498 19.185-26.10AEBEEBACA" />
<glyph unicode="&#xe696;" d="M358.25 419.343l-171.399-391.108h23.974v-30.118h-90.353v30.118h33.461l171.399 391.108h-24.154v30.118h90.353v-30.118h-33.28z" />
<glyph unicode="&#xe697;" d="M325.271 50.041v-30.118h-138.541v30.118h54.212v223.804h-52.706v30.117h82.823v-253.922h54.212zM240.5805187CFAA3" />
<glyph unicode="&#xe698;" d="M512 239.059c0-66.439-54.031-120.47-120.471-120.47-36.051 0-69.572 16.022-92.582 43.731l-0.060-0.0300BA903EAD0" />
<glyph unicode="&#xe699;" d="M0 389.647v-361.412h512v361.412h-512zM481.882 58.353h-451.764v301.176h451.764v-301.176zM77.162 73.0800DCE33A01" />
<glyph unicode="&#xe69a;" d="M271.059 359.529h169.412l-108.695 120.471h-211.305v-120.471h120.471v-112.128h-33.882v-279.401h97.8820F06D28A17" />
<glyph unicode="&#xe69b;" d="M421.647-1.882h-90.353v180.706h-150.588v-180.706h-90.353v271.059h-30.117v-301.176h391.529v301.176h-3004F65BA5D" />
<glyph unicode="&#xe69c;" d="M310.543 33.325c0-27.046-21.986-49.031-49.062-49.031-27.166 0-49.122 21.986-49.122 49.031 0 27.106 20CC5ACAAE9" />
<glyph unicode="&#xe69d;" d="M481.31 236.499c-5.783 135.319-104.478 243.501-225.31 243.501s-219.528-108.183-225.31-243.501c-17.77030EF51AF3" />
<glyph unicode="&#xe69e;" d="M406.588 103.529c-24.907 0-45.176-20.269-45.176-45.176s20.269-45.176 45.176-45.176 45.176 20.269 45.0CDAEACAB3" />
<glyph unicode="&#xe69f;" d="M425.683 389.767h-339.305l-86.377-131.734v-199.8h512v197.843l-86.317 133.692zM102.671 359.65h306.5980C948C8A28" />
<glyph unicode="&#xe6a0;" d="M236.092 311.010l-1.024-5.964 20.269 2.59c0.12 0 0.632 0.091 0.934 0.12l19.185-2.439-0.933 5.452c32.07CBBAFAB6" />
<glyph unicode="&#xe6a1;" d="M271.059 359.891v89.991h-30.118v-89.991c-107.339-3.163-240.941-38.611-240.941-74.903v-212.059c0-24.90E51DCCA78" />
<glyph unicode="&#xe6a2;" d="M16.264 480l194.56-277.956v-234.044h90.353v234.044l194.56 277.956h-479.473zM271.059 211.531v-213.413h-30.118v213.413l-166.852 238.351h363.821l-166.852-238.351z" />
<glyph unicode="&#xe6a3;" d="M376.38 480h-195.674v-60.536h30.118v30.419h150.588v-120.47h120.471v-240.941h-120.983v-30.118h151.1v209A2ADDAC3" />
<glyph unicode="&#xe6a4;" d="M291.147 480h-230.912v-512h391.529v352.135l-160.618 159.865zM301.176 427.535l98.575-98.123h-98.575v90504032A41" />
<glyph unicode="&#xe6a5;" d="M404.962 353.476l-156.492 90.383c-20.781 11.957-49.694 4.247-61.681-16.565l-180.706-313.012c-12.469-01D31BFA8C" />
<glyph unicode="&#xe6a6;" d="M60.236 480v-512h391.529v512h-391.529zM141.403 359.529l-42.406 90.353h314.007l-42.466-90.353h-229.130AA4B9BAA6" />
<glyph unicode="&#xe6a7;" d="M512-1.882v-30.118h-512v30.118h512zM402.191 213.339l-21.293 21.293-109.809-109.809v355.178h-30.118v-089AF1CA35" />
<glyph unicode="&#xe6a8;" d="M501.188 317.094l-84.661 102.671h-145.468v60.236h-30.118v-60.236h-210.823v-210.823h210.823v-240.941h05B2E08A56" />
<glyph unicode="&#xe6a9;" d="M271.059 299.294h141.402l58.368 77.192-58.609 73.397h-141.161v30.118h-30.118v-30.118h-180.706v-150.5063478DA31" />
<glyph unicode="&#xe6aa;" d="M512 133.647v-15.059h-185.765v30.118h155.166c-3.373 50.959-23.763 97.31-55.476 133.541l-24.275-24.270F0C809A15" />
<glyph unicode="&#xe6ab;" d="M90.353 389.647v-331.294h331.294v331.294h-331.294zM391.529 88.471h-271.059v271.059h271.059v-271.059z" />
<glyph unicode="&#xe6ac;" d="M269.252 273.062l32.557 40.357-0.12 0.091c25.75 29.244 62.856 46.020 101.738 46.020h57.163l-49.574 40C4AEBBAC0" />
<glyph unicode="&#xe6ad;" d="M90.353 398.923v-349.907l349.907 175.797-349.907 174.11zM120.471 350.253l252.446-125.591-252.446-126.825v252.416z" />
<glyph unicode="&#xe6ae;" d="M90.353 28.236h120.471v391.529h-120.471v-391.529zM120.471 389.647h60.236v-331.294h-60.236v331.294zM30748F33ABE" />
<glyph unicode="&#xe6af;" d="M90.353 406.634v-365.508l219.286 183.657-219.286 181.851zM120.471 342.543l142.125-117.851-142.125-110E8B8ACAC6" />
<glyph unicode="&#xe6b0;" d="M202.361 224.783l219.286-183.628v365.478l-219.286-181.851zM391.529 105.668l-142.125 118.995 142.125 0FF5969AC7" />
<glyph unicode="&#xe6b1;" d="M384 344.471c-17.408 0-34.515-3.705-50.929-11.053-26.774 26.292-62.494 41.171-99.659 41.171-59.212 00FDA4FDABA" />
<glyph unicode="&#xe6b2;" d="M512 276.706c0-70.566-57.404-128-128-128h-83.034v30.118h83.034c53.971 0 97.882 43.911 97.882 97.882s019F801A4A" />
<glyph unicode="&#xe6b3;" d="M512 276.706c0-70.566-57.404-128-128-128h-83.034v30.118h83.034c53.971 0 97.882 43.911 97.882 97.882s020BC0BADE" />
<glyph unicode="&#xe6b4;" d="M481.882 419.764v-451.764h-451.764v451.764h67.584v-30.118h-37.467v-391.529h391.529v391.529h-38.49v30028BE0BA9B" />
<glyph unicode="&#xe6b5;" d="M512 179.305l-58.971-0.060-61.772 120.049h-239.405l-89.389-120.44-62.464-0.030v-149.896h60.295c0-0.201B24FCA39" />
<glyph unicode="&#xe6b6;" d="M421.647 419.764v30.118h-90.353v-30.118h-150.588v30.118h-90.353v-30.118h-90.353v-451.764h512v451.7640D93A1DA9B" />
<glyph unicode="&#xe6b7;" d="M499.712 445.305c-1.596 0.301-39.786 7.349-89.781 7.349-63.397 0-115.291-11.023-154.353-32.768-45.710E92040A37" />
<glyph unicode="&#xe6b8;" d="M461.161 54.588c-0.421 0.392-39.514 38.972-39.514 96.678v99.147c0 93.395-74.33 169.351-165.647 169.30229E1DA2F" />
<glyph unicode="&#xe6b9;" d="M256.482 480c-141.161 0-256-114.839-256-256s114.838-256 256-256 256 114.839 256 256-114.868 256-256 0A551BBAC7" />
<glyph unicode="&#xe6ba;" d="M512-1.882v-30.118h-512v30.118h512zM60.236 178.824h60.236v-150.588h30.118v180.706h-120.471v-180.706h0732A0BA14" />
<glyph unicode="&#xe6bb;" d="M512-1.882v-30.118h-512v30.118h512zM361.412 178.824h60.236v-150.588h30.118v180.706h-120.471v-180.7060870FD8A4C" />
<glyph unicode="&#xe6bc;" d="M439.205 28.236v-30.118h-213.323c-91.316 0-165.647 74.3-165.647 165.647s74.331 165.647 165.647 165.60F25619A13" />
<glyph unicode="&#xe6bd;" d="M451.764 254.118c0-91.347-74.3-165.647-165.647-165.647h-87.702l79.692-79.692-21.293-21.293-116.043 10612DFAA3E" />
<glyph unicode="&#xe6be;" d="M451.764 193.882v-165.647h-165.647v30.118h114.537l-310.302 310.302v-114.537h-30.117v165.647h165.647v-30.117h-113.935l309.7-309.7v113.935h30.118z" />
<glyph unicode="&#xe6bf;" d="M512 419.764h-512v-120.471h30.117v-331.294h451.764v331.294h30.118v120.471zM451.764-1.882h-391.529v30035C20BA07" />
<glyph unicode="&#xe6c0;" d="M460.529 100.759l-47.284 94.178-94.178-47.224 13.493-26.955 56.35 28.281c-11.234-57.435-58.91-101.340EB6EBEA7A" />
<glyph unicode="&#xe6c1;" d="M512 419.764v-30.118h-512v30.118h512zM90.353 269.177h421.647v30.117h-421.647v-30.117zM0 148.706h512v0C33282A65" />
<glyph unicode="&#xe6c2;" d="M512 419.764v-30.118h-512v30.118h512zM421.647 299.294h-421.647v-30.117h421.647v30.117zM0 148.706h512v30.118h-512v-30.118zM0 28.236h301.176v30.118h-301.176v-30.118z" />
<glyph unicode="&#xe6c3;" d="M512 419.764v-30.118h-512v30.118h512zM0 269.177h512v30.117h-512v-30.117zM0 148.706h512v30.118h-512v-30.118zM0 28.236h512v30.118h-512v-30.118z" />
<glyph unicode="&#xe6c4;" d="M512 419.764v-30.118h-512v30.118h512zM45.176 299.294v-30.117h421.647v30.117h-421.647zM0 148.706h512v01C346FA61" />
<glyph unicode="&#xe6c5;" d="M254.614 435.065l-248.23-436.947h499.38l-251.151 436.947zM254.765 374.347l198.927-346.112h-395.565l10B65991A72" />
<glyph unicode="&#xe6c6;" d="M443.151 275.471c15.18 15.42 23.673 35.569 23.673 57.314 0 45.267-36.834 82.101-82.070 82.101-26.684069DE23A11" />
<glyph unicode="&#xe6c7;" d="M421.647 419.764v60.236h-391.529v-512h391.529v60.236h60.236v391.529h-60.236zM60.236-1.882v451.764h60021168CAF4" />
<glyph unicode="&#xe6c8;" d="M351.382 480h-260.548v-59.754h-15.54c-24.907 0-45.176-20.269-45.176-45.176v-258.651l75.927-149.263 70EE0416A56" />
<glyph unicode="&#xe6c9;" d="M0 449.882v-451.764h512v451.764h-512zM481.882 419.764v-90.353h-451.764v90.353h451.764zM30.117 28.23609CF331ACD" />
<glyph unicode="&#xe6ca;" d="M60.236 480h30.118v-30.118h-30.117v30.118zM120.471 449.882h30.117v30.118h-30.118v-30.118zM180.706 44060E788A0E" />
<glyph unicode="&#xe6cb;" d="M60.236 480h30.118v-30.118h-30.117v30.118zM150.588 480h-30.118v-30.118h30.118v30.118zM210.823 480h-30EA7EDAA60" />
<glyph unicode="&#xe6cc;" d="M60.236 480h30.118v-30.118h-30.117v30.118zM150.588 480h-30.118v-30.118h30.118v30.118zM210.823 480h-305746D8AD2" />
<glyph unicode="&#xe6cd;" d="M47.104 419.764c-25.721 0-46.682-20.781-46.682-46.321h-0.421v-329.457c0-25.54 20.932-46.321 46.682-40D32E78AA4" />
<glyph unicode="&#xe6ce;" d="M0 449.882v-451.764h512v451.764h-512zM481.882 359.529h-8.072l-70.957 60.236h79.029v-60.236zM263.318 05B51C9A23" />
<glyph unicode="&#xe6cf;" d="M391.259 276.706v67.764c0 24.907-20.42 45.176-45.538 45.176h-225.25v15.059c0 8.313 6.776 15.059 15.00466D81A72" />
<glyph unicode="&#xe6d0;" d="M449.957 299.294c-31.082 19.486-66.68 30.118-103.605 30.118-23.432 0-46.050-4.337-67.433-12.168l77.307D3C8FAB5" />
<glyph unicode="&#xe6d1;" d="M79.149 274.779c-2.771 0-6.596-0.091-9.005-0.512l-0.723-0.12-0.362-0.632c-12.288-22.528-36.743-88.360F5A830AB4" />
<glyph unicode="&#xe6d2;" d="M283.136 440.726c-29.997 0-63.156-5.090-99.539-16.444-288.738-90.233-160.106-289.672-122.278-309.369004B86FA07" />
<glyph unicode="&#xe6d3;" d="M183.597 424.283c-288.708-90.233-160.106-289.672-122.248-309.369 64.18-33.28-34.696-107.64-34.696-1005B88D6AC1" />
<glyph unicode="&#xe6d4;" d="M403.094 389.647c-28.22 55.085-84.48 90.353-147.095 90.353s-118.844-35.238-147.095-90.353h-108.906v-0817F4EABA" />
<glyph unicode="&#xe6d5;" d="M512 121.058c0 31.503-25.66 57.163-57.133 57.163h-132.397l37.948 136.042 0.572 106.014c-0.060 32.377037E455A24" />
<glyph unicode="&#xe6d6;" d="M161.25 303.692l-79.722-79.692 79.692-79.692-21.293-21.293-100.984 100.985 101.014 101.014 21.293-21.323zM372.074 325.014l-21.293-21.293 79.692-79.721-79.692-79.692 21.293-21.293 100.984 100.985-100.985 101.014zM240.941-32h30.117v512h-30.118v-512z" />
<glyph unicode="&#xe6d7;" d="M498.779 364.228l-42.255 42.285c-16.956 17.017-46.803 17.077-63.88 0l-379.121-379.241 163.66 0.091 6018D51DA6C" />
<glyph unicode="&#xe6d8;" d="M0.783 449.882h90.353v-30.118h-60.236v-391.529h60.236v-30.118h-90.353v451.764zM422.43 449.882v-30.1102CB461A2D" />
<glyph unicode="&#xe6d9;" d="M457.999 224l-101.014-101.014-21.293 21.293 79.721 79.721-79.692 79.692 21.293 21.293 100.985-100.984zM210.823-32h30.118v512h-30.118v-512z" />
<glyph unicode="&#xe6da;" d="M176.309 303.692l-79.722-79.692 79.692-79.692-21.293-21.293-100.984 100.985 101.014 101.014 21.293-21.323zM271.059 480v-512h30.118v512h-30.118z" />
<glyph unicode="&#xe6db;" d="M0 471.175v-503.175h503.175l-503.175 503.175zM30.117 398.471l89.058-89.058-19.727-19.727 21.293-21.207CBC46A5A" />
<glyph unicode="&#xe6dc;" d="M60.236 480v-509.048l61.078 74.722 45.267-56.621 45.207 56.471 45.146-56.471 45.176 56.471 45.176-560EF45C7A05" />
<glyph unicode="&#xe6dd;" d="M240.941 133.647h30.117v-165.647h-30.118v165.647zM421.647 214.964v-66.259h-331.294v66.259l32.948 14.08938FEA4C" />
<glyph unicode="&#xe6de;" d="M162.756 152.049l21.293-21.293-158.358-158.328-21.293 21.293 158.358 158.328zM512 292.608l-66.018-190B24CDEA94" />
<glyph unicode="&#xe6df;" d="M285.877 480h-59.754c-24.907 0-45.177-20.269-45.177-45.176v-320.964l75.927-149.263 74.21 149.353v320003875EA45" />
<glyph unicode="&#xe6e0;" d="M256 464.941c-132.849 0-240.941-108.092-240.941-240.941 0-128.933 100.954-234.526 229.828-240.399l3800BD72DA0D" />
<glyph unicode="&#xe6e1;" d="M60.236 299.294c-33.25 0-60.236-26.986-60.236-60.235s26.985-60.236 60.236-60.236 60.236 26.986 60.230B4F4C7A04" />
<glyph unicode="&#xe6e2;" d="M120.471 239.059c0-33.25-26.986-60.236-60.236-60.236s-60.236 26.986-60.236 60.236 26.985 60.236 60.20561676A06" />
<glyph unicode="&#xe6e3;" d="M349.786 268.544c20.721 22.709 33.732 52.615 33.732 85.745 0 70.325-57.193 127.518-127.518 127.518s-03931F3A32" />
<glyph unicode="&#xe6e4;" d="M331.294 480v-304.851c0-40.026-33.792-72.553-75.294-72.553s-75.294 32.527-75.294 72.553v304.851h-1500CFA8F2AC1" />
<glyph unicode="&#xe6e5;" d="M512 299.294v-30.117h-512v30.117h512zM0 178.824h512v30.118h-512v-30.118z" />
<glyph unicode="&#xe6e6;" d="M0 239.119h15.059v-30.117h-15.059v30.118zM71.77 208.971h28.34v30.118h-28.34v-30.118zM156.792 208.97100E3686A54" />
<glyph unicode="&#xe6e7;" d="M0 239.059h120.471v-30.117h-120.471v30.118zM195.764 208.941h120.471v30.118h-120.471v-30.118zM391.529 239.059v-30.117h120.471v30.118h-120.471z" />
<glyph unicode="&#xe6e8;" d="M0 480v-512h512v512h-512zM481.882-1.882h-451.764v451.764h451.764v-451.764z" />
<glyph unicode="&#xe6e9;" d="M0 480v-512h512v512h-512zM481.882-1.882h-451.764v451.764h451.764v-451.764zM90.353 239.059h30.117v-3008B7181A03" />
<glyph unicode="&#xe6ea;" d="M60.236-1.882h30.118v-30.118h-30.117v30.118zM301.176-32h30.118v30.118h-30.118v-30.118zM361.412-32h300028E0CA19" />
<glyph unicode="&#xe6eb;" d="M210.823 389.647v30.118h-210.823v-421.647h512v391.529h-301.176zM331.294 359.529v-30.117h-120.471v30.03454DFAB6" />
<glyph unicode="&#xe6ec;" d="M361.412 419.764h-361.412v-421.647h512v421.647h-150.588zM481.882 389.647v-60.236h-120.471v60.236h1200AB8D4DA64" />
<glyph unicode="&#xe6ed;" d="M180.706 449.882v-30.118h-180.706v-120.471h30.117v-120.47h150.588v-181.248h331.294v452.307h-331.294z02893CDAEF" />
<glyph unicode="&#xe6ee;" d="M210.823 419.764v30.118h-210.823v-120.38h30.117v90.262h150.588v-90.353h331.294v90.353h-301.176zM210.05FB5E2A9A" />
<glyph unicode="&#xe6ef;" d="M0 449.882v-421.647h512v421.647h-512zM481.882 58.353h-451.764v361.412h451.764v-361.412zM139.927 168.06D3769A22" />
<glyph unicode="&#xe6f0;" d="M60.236 58.353h391.529v331.294h-391.529v-331.294zM90.353 359.529h331.294v-271.059h-331.294v271.059zM0E91FEAA7E" />
<glyph unicode="&#xe6f1;" d="M512 480v-512h-150.588v512h150.588zM271.059-32h30.118v30.118h-30.118v-30.118zM217.54-32h26.774v30.110D43FA4AF7" />
<glyph unicode="&#xe6f2;" d="M0-1.882h30.117v-30.118h-30.117v30.118zM421.647-32h30.118v30.118h-30.118v-30.118zM361.412-32h30.118v0B2DD5BA26" />
<glyph unicode="&#xe6f3;" d="M0 480h150.588v-512h-150.588v512zM210.823-32h30.118v30.118h-30.118v-30.118zM428.333-32h26.774v30.1180215094ACF" />
<glyph unicode="&#xe6f4;" d="M0.632 449.521v-451.764h512v451.764h-512zM245.067 223.729l-214.317-186.639v373.82l214.317-187.181zM408C8919A4E" />
<glyph unicode="&#xe6f5;" d="M0 269.177v-90.353h391.529v90.353h-391.529zM240.941 239.059v-30.117h-90.353v30.118h90.353zM30.117 230AC6BF5AEA" />
<glyph unicode="&#xe6f6;" d="M90.353 449.882v-90.353h331.294v90.353h-331.294zM391.529 389.647h-271.059v30.118h271.059v-30.118zM900484131A65" />
<glyph unicode="&#xe6f7;" d="M0 178.824h150.588v90.353h-150.588v-90.353zM30.117 239.059h90.353v-30.117h-90.353v30.118zM180.706 170ABF8A5A32" />
<glyph unicode="&#xe6f8;" d="M0 269.177v-90.353h512v90.353h-512zM271.059 239.059h90.353v-30.117h-90.353v30.118zM240.941 208.941h-0CFC2C7AC9" />
<glyph unicode="&#xe6f9;" d="M60.236 88.471h451.764v-30.118h-451.764v30.118zM210.823-1.671h301.177v30.118h-301.176v-30.118zM512 406ED387A5A" />
<glyph unicode="&#xe6fa;" d="M240.941 359.529v-271.059h271.059v271.059h-271.059zM481.882 118.588h-210.824v210.824h210.823v-210.820C34A98AF6" />
<glyph unicode="&#xe6fb;" d="M451.764 118.588h-391.529v30.118h391.529v-30.118zM361.412 88.682h-301.176v-30.118h301.176v30.118zM5107B8B86AF4" />
<glyph unicode="&#xe6fc;" d="M0 419.764v-361.412h512v361.412h-512zM30.117 178.522v211.125h451.764v-211.125h-451.764z" />
<glyph unicode="&#xe6fd;" d="M361.412 208.941h-301.176v30.118h301.176v-30.118zM361.412 178.824h-301.176v-30.118h301.176v30.118zM50B3FB22A25" />
<glyph unicode="&#xe6fe;" d="M0 88.471h451.764v-30.118h-451.764v30.118zM0-1.671h301.176v30.118h-301.176v-30.118zM512 449.882v-3310FB2A63AE3" />
<glyph unicode="&#xe6ff;" d="M301.176 359.529h175.465v-30.117h-175.466v30.117zM301.176 239.179h105.322v-30.117h-105.322v30.118zM30A70F50AAC" />
<glyph unicode="&#xe700;" d="M30.117 88.471h451.764v-30.118h-451.764v30.118zM120.471-1.671h271.059v30.118h-271.059v-30.118zM512 406ED387A5A" />
<glyph unicode="&#xe701;" d="M30.117 359.529v-180.706h451.764v180.706h-451.764zM451.764 208.941h-391.529v120.471h391.529v-120.471082F941A35" />
<glyph unicode="&#xe702;" d="M451.764 359.529h-271.059v30.118h271.059v-30.118zM180.706 329.412v-30.118h331.294v30.118h-331.294zM00BEA845ACE" />
<glyph unicode="&#xe703;" d="M451.764 329.412h-271.059v30.117h271.059v-30.117zM180.706 299.294v-30.117h331.294v30.117h-331.294zM00B03C90AC7" />
<glyph unicode="&#xe704;" d="M421.647 329.412h-421.647v60.236h421.647v-60.236zM0 299.294v-30.117h512v30.117h-512zM421.647 178.824h-421.647v-60.236h421.647v60.236zM0 58.353h512v30.118h-512v-30.118z" />
<glyph unicode="&#xe705;" d="M496.851 329.412h-75.204v30.117h75.204v-30.117zM466.793 239.179h-45.147v-30.117h45.147v30.118zM421.705CA1ACAED" />
<glyph unicode="&#xe706;" d="M512 239.059v-30.117h-512v30.118h512z" />
<glyph unicode="&#xe707;" d="M30.117 359.529h90.353v90.353h-90.353v-90.353zM60.236 419.764h30.118v-30.118h-30.117v30.118zM150.5880D439AFA6B" />
<glyph unicode="&#xe708;" d="M0 329.412h150.588v150.588h-150.588v-150.588zM30.117 449.882h90.353v-90.353h-90.353v90.353zM180.706 0999AFBAFE" />
<glyph unicode="&#xe709;" d="M0 269.177h210.823v210.823h-210.823v-210.823zM30.117 449.882h150.588v-150.588h-150.588v150.588zM271.022D068AC1" />
<glyph unicode="&#xe70a;" d="M0 419.764h90.353v-90.353h-90.353v90.353zM271.059 329.412h90.353v90.353h-90.353v-90.353zM0 88.471h90033B8B6AA9" />
<glyph unicode="&#xe70b;" d="M0 389.647v-331.294h512v331.294h-512zM481.882 88.471h-451.764v271.059h451.764v-271.059zM421.647 239.0DF927DA5D" />
<glyph unicode="&#xe70c;" d="M0 389.647v-331.294h512v331.294h-512zM481.882 88.471h-451.764v271.059h451.764v-271.059zM391.529 239.0F5E962A5B" />
<glyph unicode="&#xe70d;" d="M421.647 239.059h-331.294v30.118h331.294v-30.118zM512 389.647v-331.294h-512v331.294h512zM481.882 3590F215FEA15" />
<glyph unicode="&#xe70e;" d="M271.059 269.177h-210.823v30.117h210.823v-30.117zM120.26 208.941h150.588v30.118h-150.588v-30.118zM510AB0A76AF9" />
<glyph unicode="&#xe70f;" d="M451.764 269.177h-210.823v30.117h210.823v-30.117zM241.152 208.941h150.588v30.118h-150.588v-30.118zM5055C03CA1F" />
<glyph unicode="&#xe710;" d="M30.117-32h90.353v512h-90.353v-512zM60.236 449.882h30.118v-451.764h-30.117v451.764zM150.588-32h90.350B28CB8AEA" />
<glyph unicode="&#xe711;" d="M0-32h150.588v512h-150.588v-512zM30.117 449.882h90.353v-451.764h-90.353v451.764zM180.706-32h150.588v0D286D7A55" />
<glyph unicode="&#xe712;" d="M0-32h240.941v512h-240.941v-512zM30.117 449.882h180.706v-451.764h-180.706v451.764zM271.059 480v-512h075C08CA13" />
<glyph unicode="&#xe713;" d="M0 480v-90.353h512v90.353h-512zM481.882 419.764h-451.764v30.118h451.764v-30.118zM0 88.471h512v271.050560B2CA18" />
<glyph unicode="&#xe714;" d="M0 480v-512h512v512h-512zM481.882 449.882v-271.059h-451.764v271.059h451.764zM481.882 148.706v-60.23600D6313A73" />
<glyph unicode="&#xe715;" d="M120.471 480v-271.059h391.529v271.059h-391.529zM481.882 239.059h-331.294v210.823h331.294v-210.823zM0020B248A97" />
<glyph unicode="&#xe716;" d="M90.353 480v-195.735l164.623-286.087 166.671 286.058v195.764h-331.294zM255.126 58.353h0.060l-0.030-00596901A87" />
<glyph unicode="&#xe717;" d="M256 480c-141.161 0-256-114.839-256-256s114.838-256 256-256 256 114.839 256 256-114.839 256-256 256z047CA79A72" />
<glyph unicode="&#xe718;" d="M256 480c-141.161 0-256-114.839-256-256s114.838-256 256-256 256 114.839 256 256-114.839 256-256 256z0DADD18A75" />
<glyph unicode="&#xe719;" d="M471.884 298.782c-28.822 107.128-116.344 181.218-215.884 181.218-99.238 0-187.091-74.21-215.883-181.07A14EFA52" />
<glyph unicode="&#xe71a;" d="M436.706 231.951v-95.955c0-20.179-9.698-46.833-18.252-70.325-5.572-15.269-11.866-32.587-11.866-39.450282A21A82" />
<glyph unicode="&#xe71b;" d="M509.651 254.298c0-24.968-20.721-45.297-46.231-45.297h-70.024c1.777-4.879 2.74-10.149 2.74-15.601 0-0380E10A9A" />
<glyph unicode="&#xe71c;" d="M494.592 73.412c0-8.313-6.747-15.059-15.059-15.059h-25.75c-6.837 0-24.154-6.295-39.424-11.866-23.52209A9BA1A2B" />
<glyph unicode="&#xe71d;" d="M414.208 139.58c-28.793-17.378-51.26 5.211-59.693 13.673l-7.83 8.493v-147.516c0-25.51-20.329-46.231-02915A3A2D" />
<glyph unicode="&#xe71e;" d="M391.529 178.824v301.176h-391.529v-391.529h391.529v90.353zM30.117 449.882h331.294v-240.941h-22.739l-02FF6CBAA4" />
<glyph unicode="&#xe71f;" d="M256 480c-141.161 0-256-114.839-256-256s114.838-256 256-256 256 114.839 256 256-114.839 256-256 256z0480529A25" />
<glyph unicode="&#xe720;" d="M256 480c-141.161 0-256-114.839-256-256s114.838-256 256-256 256 114.839 256 256-114.839 256-256 256z0639D2EA67" />
<glyph unicode="&#xe721;" d="M466.824 419.764h-421.647c-24.907 0-45.176-20.269-45.176-45.177v-301.176c0-24.908 20.269-45.176 45.105DDE9CA97" />
<glyph unicode="&#xe722;" d="M90.353 41.156l219.286 183.627-219.286 181.851v-365.478zM120.471 342.543l142.125-117.88-142.125-118.995v236.875zM421.647 419.764v-391.529h-30.118v391.529h30.118z" />
<glyph unicode="&#xe723;" d="M202.361 223.217l219.286-181.851v365.478l-219.286-183.627zM391.529 105.457l-142.125 117.88 142.125 118.995v-236.875zM90.353 419.764h30.117v-391.529h-30.118v391.529z" />
<glyph unicode="&#xe724;" d="M256 404.706c-99.659 0-180.706-81.047-180.706-180.706s81.047-180.706 180.706-180.706 180.706 81.046 0FD65F0AC7" />
<glyph unicode="&#xe725;" d="M255.217 398.11l-181.851-219.286h365.478l-183.627 219.286zM255.338 351.067l118.995-142.125h-236.875l117.88 142.125zM451.764 88.471v-30.118h-391.529v30.118h391.529z" />
<glyph unicode="&#xe726;" d="M391.529 239.059h30.118c0-74.722-60.808-135.53-135.53-135.53s-135.53 60.808-135.53 135.53h30.118c0-5027104FAA6" />
<glyph unicode="&#xe727;" d="M512 253.184c0 24.907-20.269 45.177-45.176 45.177h-144.805l8.584 27.528 0.692 108.935c0 24.907-20.2602212DCA46" />
<glyph unicode="&#xe728;" d="M250.006 286.584c13.162 0 23.16 4.849 30.299 14.577 5.452 7.138 7.981 18.583 7.981 33.732v49.995c0 10614550ABE" />
<glyph unicode="&#xe729;" d="M471.763 398.983c-12.529 15.902-34.033 24.335-62.132 24.335-7.951 0-15.692-0.693-22.829-1.777-26.17203E431CAFF" />
<glyph unicode="&#xe72a;" d="M512 382.539c-18.853-8.132-39.303-13.974-60.446-16.233 21.775 12.981 38.34 33.43 46.14 57.796-20.14906730C5A4F" />
<glyph unicode="&#xe72b;" d="M261 480c-141.161 0-256-114.839-256-256s114.838-256 256-256 256 114.839 256 256c0 141.161-114.839 250D7E375AE6" />
<glyph unicode="&#xe72c;" d="M396.047 97.897c-21.685-14.396-42.767-21.384-64.482-21.384-11.173 0-20.601 2.469-28.913 7.56-5.12 3.0122C2AAE7" />
<glyph unicode="&#xe72d;" d="M487.876 180.54c2.68 14.757 4.036 29.365 4.036 43.46 0 144.203-128.572 259.253-279.401 231.876-22.760525E40A0C" />
<glyph unicode="&#xe72e;" d="M204.649 76.544c-33.43 31.232-52.615 75.355-52.615 121.103 0 91.347 74.331 165.647 165.647 165.647h8046195DAC8" />
<glyph unicode="&#xe72f;" d="M166.46 232.162l-116.043 116.073 116.073 116.073 21.293-21.293-79.722-79.722h87.703c91.317 0 165.6470151994AD6" />
<glyph unicode="&#xe730;" d="M361.412 148.706c0 30.118 0 150.588 0 180.706 0 150.588-90.353 150.588-90.353 150.588s-90.353 0-90.3080BEBCA6A" />
<glyph unicode="&#xe731;" d="M452.517 292.518c0-115.019-63.94-200.644-157.997-200.644-31.594 0-61.29 17.107-71.228 36.533-17.107-0A4787BA18" />
<glyph unicode="&#xe732;" d="M451.764 419.764v-225.882h-30.118v170.707l-281.118-281.118-21.293 21.293 284.883 284.883h-178.236v300C29787AEF" />
<glyph unicode="&#xe733;" d="M232.93 6.46l279.070-38.46v241.845h-279.070v-203.385zM263.048 179.727h218.835v-177.182l-218.835 30.10D17778A65" />
<glyph unicode="&#xe734;" d="M512 359.529v-30.117h-361.412v30.117h361.412zM150.588 208.941h361.412v30.118h-361.412v-30.118zM150.50C36AE6A22" />
<glyph unicode="&#xe735;" d="M21.022 304.625h103.544v-310.904h-103.544v310.904zM73.427 454.279c-35.148 0-58.368-23.221-58.368-53.0C825C0A6B" />
<glyph unicode="&#xe736;" d="M512 480v-512h-120.471v512h120.471zM0-32h90.353v512h-90.353v-512zM331.294-32h30.118v30.118h-30.118v-018F268AAD" />
<glyph unicode="&#xe737;" d="M30.117 449.882h90.353v-90.353h-90.353v90.353zM150.588 359.529h90.353v90.353h-90.353v-90.353zM271.050198955A5D" />
<glyph unicode="&#xe738;" d="M0 480h150.588v-150.588h-150.588v150.588zM180.706 329.412h150.588v150.588h-150.588v-150.588zM361.412074A105AEA" />
<glyph unicode="&#xe739;" d="M0 480h210.823v-210.823h-210.823v210.823zM271.059 480v-210.823h210.824v210.823h-210.823zM0-1.882h2100D2EBC0A19" />
<glyph unicode="&#xe73a;" d="M30.117 480h90.353v-512h-90.353v512zM150.588-32h90.353v512h-90.353v-512zM271.059-32h90.353v512h-90.353v-512zM391.529 480v-512h90.353v512h-90.353z" />
<glyph unicode="&#xe73b;" d="M0 480h150.588v-512h-150.588v512zM180.706-32h150.588v512h-150.588v-512zM361.412 480v-512h150.588v512h-150.588z" />
<glyph unicode="&#xe73c;" d="M0 480h240.941v-512h-240.941v512zM271.059 480v-512h240.941v512h-240.941z" />
<glyph unicode="&#xe73d;" d="M391.529 480h-271.059c-66.259 0-120.471-54.212-120.471-120.471v-271.059c0-66.259 54.212-120.47 120.40C3B797AF2" />
<glyph unicode="&#xe73e;" d="M512 401.243v-39.394h-78.757v-78.788h-39.394v78.788h-78.757v39.394h78.757v78.758h39.394v-78.758h78.70041D70A92" />
<glyph unicode="&#xe73f;" d="M393.849 145.243c0-22.468-11.716-59.091-39.394-59.091-27.708 0-39.424 36.623-39.424 59.091 0 22.438 0741C94ABF" />
<glyph unicode="&#xe740;" d="M219.708 224c0-60.657-49.212-109.839-109.809-109.839-60.687 0-109.9 49.182-109.9 109.839s49.212 109.09283D4A3E" />
<glyph unicode="&#xe741;" d="M375.296 312.245l-9.306-88.245h-70.536v-256h-105.954v256h-52.796v88.245h52.796v53.127c0 71.771 29.840A600BAA78" />
<glyph unicode="&#xe742;" d="M507.572 348.356l-159.503 104.026-92.070-76.439-91.738 76.439-159.834-104.026 93.365-74.572-93.335-7008F1B8AB2" />
<glyph unicode="&#xe743;" d="M256 480c-141.372 0-256-114.628-256-256s114.628-256 256-256 256 114.628 256 256-114.628 256-256 256z0E0951EA45" />
<glyph unicode="&#xe744;" d="M421.677 144.941c-14.125 20.3-21.203 43.37-21.203 68.608 0 23.371 6.776 44.635 19.998 63.699 7.379 10BC57EFAEE" />
<glyph unicode="&#xe745;" d="M114.718 308.45h282.594v-205.011c0-18.764-15.119-33.882-33.521-33.882h-23.161v-69.873c0-17.558-14.12044A751A9A" />
<glyph unicode="&#xe746;" d="M426.587 480h-381.41c-24.907 0-45.176-20.269-45.176-45.176v-421.647c0-24.908 20.269-45.176 45.176-4505F4BB7A01" />
<glyph unicode="&#xe747;" d="M466.824 480h-381.41l-85.413-83.606v-383.217c0-24.908 20.269-45.176 45.176-45.176h421.647c24.908 0 402A337BAA3" />
<glyph unicode="&#xe748;" d="M286.118-16.941c-9.849 1.747-19.998 3.163-30.419 3.163-10.119 0-20.269-1.445-30.388-3.163l3.764 204.0BAFB83A77" />
<glyph unicode="&#xe749;" d="M496.941 224c0-132.819-108.092-240.941-240.941-240.941s-240.941 108.123-240.941 240.941 108.092 240.0BDB8B6A17" />
<glyph unicode="&#xe74a;" d="M485.858 410.7c-17.468 22.166-54.091 23.010-79.661 19.185-20.48-3.404-90.293-34.063-113.755-107.791 044823AADB" />
<glyph unicode="&#xe74b;" d="M459.385 328.268c0.332-4.548 0.332-9.096 0.332-13.673 0-138.692-105.592-298.526-298.556-298.526-59.40478436ACD" />
<glyph unicode="&#xe74c;" d="M274.191 464.941v-121.735h114.236v-75.596h-114.236v-123.603c0-27.919 1.265-45.809 4.397-53.971 2.83104E37B0A87" />
<glyph unicode="&#xe74d;" d="M496.941 3.147c0-10.993-9.096-20.089-20.089-20.089h-441.705c-10.963 0-20.088 9.096-20.088 20.089v44104871A3A1F" />
<glyph unicode="&#xe74e;" d="M381.289-7.274c0-9.397-0.271-9.397-0.271-9.397v-0.271h-304.369c-9.427 0-9.427 0.271-9.427 0.271h-0.20347BCBA7D" />
<glyph unicode="&#xe74f;" d="M26.564 174.848l-4.186-26.353c-0.211-1.054-0.813-1.868-1.867-1.868s-1.686 0.813-1.867 1.868l-3.584 26.353 3.554 26.774c0.211 1.054 0.843 1.868 1.867 1.868s1.657-0.813 1.867-1.868l4.216-26.774zM45.809 174.848l-5.421-42.436c-0.211-1.054-1.054-1.868-2.078-1.868-1.054 0-1.867 0.813-1.867 2.048l-4.819 42.255c4.819 43.309 4.819 43.309 4.819 43.309 0 1.024 0.813 1.868 1.867 1.868 1.024 0 1.867-0.844 2.078-1.868l5.421-43.309zM64.844 174.848l-5.21-49.574c0-1.235-1.054-2.289-2.319-2.289s-2.289 1.054-2.5 2.289l-4.397 49.574 4.397 51.23c0.211 1.476 1.265 2.5 2.5 2.5 1.265 0 2.319-1.024 2.319-2.5l5.21-51.23zM84.088 174.848l-4.819-51.019c-0.211-1.687-1.445-2.74-2.921-2.74-1.445 0-2.71 1.054-2.71 2.74l-4.397 51.019 4.397 52.706c0 1.686 1.265 2.71 2.71 2.71 1.476 0 2.71-1.024 2.921-2.71l4.819-52.706zM103.334 174.848l-4.397-51.471c-0.211-1.868-1.686-3.343-3.343-3.343s-3.132 1.476-3.132 3.343l-4.186 51.471 4.186 48.911c0 1.716 1.476 3.162 3.132 3.162 1.686 0 3.132-1.476 3.343-3.162l4.397-48.911zM122.971 174.848l-4.397-51.471c0-2.048-1.686-3.764-3.554-3.764-2.078 0-3.554 1.716-3.764 3.764l-3.764 51.471c3.764 79.51 3.764 79.51 3.764 79.51 0.241 2.048 1.686 3.734 3.764 3.734 1.868 0 3.554-1.686 3.554-3.734l4.397-79.51zM142.215 174.426l-3.976-51.050c0-2.289-1.898-3.945-3.976-3.945-2.289 0-3.946 1.656-4.186 3.945l-3.343 51.050c3.343 97.882 3.343 97.882 3.343 97.882 0.211 2.289 1.868 3.976 4.186 3.976 2.078 0 3.976-1.687 3.976-3.976l3.976-97.882zM162.515 174.848l-3.764-50.628c-0.211-2.5-2.078-4.397-4.608-4.397-2.289 0-4.186 1.868-4.397 4.397l-3.343 50.628 3.343 105.834c0 2.5 2.108 4.608 4.397 4.608 2.5 0 4.397-2.108 4.608-4.608l3.764-105.834zM182.393 174.848l-3.373 109.387c-0.18 2.711-2.289 5.029-5 5.029-2.5 0-4.819-2.319-4.819-5.029l-2.952-109.387 2.952-50.417c0.211-2.711 2.319-4.819 4.819-4.819 2.71 0 4.819 2.108 5.030 4.819l3.343 50.417zM202.451 174.848l-3.132-49.995c0-2.921-2.289-5.24-5.24-5.24-2.922 0-5.030 2.319-5.21 5.24l-2.952 49.995 2.952 106.676c0 2.952 2.289 5.24 5.21 5.24 2.952 0 5.24-2.289 5.24-5.24l3.132-106.676zM222.961 174.637l-2.952-49.393c0-3.132-2.5-5.662-5.632-5.662s-5.662 2.53-5.843 5.662l-2.5 49.393 2.5 102.882c0.211 3.343 2.71 5.873 5.843 5.873 3.132 0 5.421-2.53 5.632-5.873l2.952-102.882zM243.23 174.637l-2.5 122.579c0 2.078-1.054 3.976-2.71 5-1.054 0.632-2.108 1.054-3.343 1.054-1.265 0-2.289-0.421-3.343-1.054-1.686-1.054-2.74-2.922-2.74-5l-0.211-1.235-2.108-121.103c0 0 0-0.211 2.319-49.363 0 0 0 0 0-0.241 0-1.235 0.422-2.5 1.265-3.524 1.265-1.476 2.922-2.289 4.819-2.289 1.686 0 3.132 0.813 4.186 1.868 1.265 1.024 1.868 2.5 1.868 4.187l0.211 5 2.289 44.123zM261.452 126.329c0-3.554-2.921-6.476-6.476-6.476s-6.476 2.921-6.716 6.476l-1.235 23.823-1.265 24.486 2.5 133v0.662c0.211 1.868 1.054 3.764 2.53 5 1.024 0.813 2.5 1.476 4.156 1.476 1.054 0 2.319-0.421 3.132-1.054 1.868-1.024 3.132-3.132 3.343-5.421l2.921-133.662-2.892-48.308zM437.76 119.612c-164.202 0-164.382 0-164.382 0-3.554 0.421-6.476 3.132-6.476 6.897v188.084c0 3.524 1.265 5.21 5.873 6.897 11.505 4.578 24.456 7.077 37.858 7.077 54.573 0 99.358-41.803 104.147-95.142 7.108 2.922 14.848 4.608 23.010 4.608 32.618 0 59.181-26.594 59.181-59.422-0.030-32.647-26.594-59-59.212-59z" />
<glyph unicode="&#xe750;" d="M496.941 83.411c0-55.507-44.875-100.352-100.382-100.352-55.537 0-100.382 44.845-100.382 100.352 0 3.09DEC4BA2F" />
<glyph unicode="&#xe751;" d="M496.941 73.412c0-49.875-40.478-90.353-90.353-90.353h-301.176c-49.875 0-90.353 40.478-90.353 90.353v06288E4AF8" />
<glyph unicode="&#xe752;" d="M469.263 180.751c0.723-4.849 1.204-9.939 1.204-14.788 0-39.394-23.070-75.806-64.603-103.002-40.569-20F6F0AFAD0" />
<glyph unicode="&#xe753;" d="M256 464.941c-133.060 0-240.941-107.851-240.941-240.941 0-98.635 59.332-183.417 144.233-220.672-0.6600ADFEBAC9" />
<glyph unicode="&#xe754;" d="M0 409.555l209.829 28.883v-202.752h-209.829v173.869zM0 38.445l209.829-28.883v200.283h-209.829v-171.304BFCCCA1A" />
<glyph unicode="&#xe755;" d="M417.099 20.706c-15.33-7.83-35.78-25.058-43.309-32.286-5.662-5.391-29.034-8.101-42.225-1.356-15.33 70CE951FA63" />
<glyph unicode="&#xe756;" d="M496.941 152.712c0-51.531-42.587-93.425-94.81-93.425-1.868 0-3.524 0.241-5.18 0.241h-286.358c-52.7060AF0033AF7" />
<glyph unicode="&#xe757;" d="M300.544 118.257l-47.375-47.676-9.397-9.397c-27.618-27.286-66.198-36.714-101.316-27.919-6.626-28.88301E909CA9A" />
<glyph unicode="&#xe758;" d="M468.028 464.941l-38.55-433.062-174.080-48.82-172.875 48.82-38.55 433.062h424.057zM389.12 376.425h-207BB5B9ACA" />
<glyph unicode="&#xe759;" d="M256 464.941c-133.060 0-240.941-107.911-240.941-240.941 0-133.060 107.882-240.941 240.941-240.941s2406900B6AF1" />
<glyph unicode="&#xe75a;" d="M0 419.764v-391.529h512v391.529h-512zM255.82 184.335l-207.691 205.312h416.226l-208.535-205.312zM173.0A24240A9D" />
<glyph unicode="&#xe75b;" d="M257.897-16.941c-111.978 0-212.691 88.124-212.691 207.993 0 119.688 93.304 175.074 110.592 184.139 20D713A1A62" />
<glyph unicode="&#xe75c;" d="M15.059 198.58l141.764-92.461 99.177 82.703-142.908 88.245zM156.822 448.015l-141.764-92.491 98.033-700AA27CA49" />
<glyph unicode="&#xe75d;" d="M496.941 442.052l-72.493-363.339-219.166-72.764-190.223 72.764 19.365 97.069h80.956l-7.921-40.057 110529482A93" />
<glyph unicode="&#xe75e;" d="M300.243 58.353h-30.118c0 97.37-80.655 176.58-179.772 176.58v30.118c115.742 0 209.89-92.732 209.89-20AD0B68AA1" />
<glyph unicode="&#xe75f;" d="M336.505-32h-30.118c0 166.068-137.457 301.176-306.387 301.176v30.118c185.555 0 336.505-148.63 336.500974106AA3" />
</font>
</defs>
</svg>
